<svg xmlns="http://www.w3.org/2000/svg" xmlns:xlink="http://www.w3.org/1999/xlink" viewBox="0 0 240.9 240.9"><defs><style>.a{fill:url(#a);}.b,.h,.m{fill:none;}.c{fill:#69696c;}.d,.l{fill:#009bdb;}.e,.k{fill:#c7d301;}.f,.j{fill:#f07e16;}.g,.i{fill:#df2814;}.h,.i,.j,.k,.l,.m{stroke:#69696c;stroke-miterlimit:10;}.h,.i,.j,.k,.l{stroke-width:2.69px;}.m{stroke-width:2.65px;}</style><linearGradient id="a" x1="24.12" y1="119.81" x2="217.84" y2="119.81" gradientTransform="translate(241.97 239.63) rotate(180)" gradientUnits="userSpaceOnUse"><stop offset="0" stop-color="#fff"/><stop offset="0.17" stop-color="#fdfefe" stop-opacity="0.99"/><stop offset="0.31" stop-color="#f5fafc" stop-opacity="0.96"/><stop offset="0.45" stop-color="#e9f3f8" stop-opacity="0.92"/><stop offset="0.58" stop-color="#d8eaf3" stop-opacity="0.85"/><stop offset="0.71" stop-color="#c2dded" stop-opacity="0.77"/><stop offset="0.84" stop-color="#a7cee5" stop-opacity="0.66"/><stop offset="0.96" stop-color="#87bddb" stop-opacity="0.54"/><stop offset="1" stop-color="#7cb7d8" stop-opacity="0.5"/></linearGradient></defs><path class="a" d="M24.15,122.39a96.59,96.59,0,0,0,17.46,53,96.81,96.81,0,0,0,147.91,13,97.66,97.66,0,0,0,10.84-13,96.88,96.88,0,1,0-176.21-53Z"/><circle class="b" cx="120.45" cy="120.45" r="100"/><path class="c" d="M120.46,28.45a92,92,0,0,1,65.07,157,92,92,0,1,1-65.07-157h0m0-8a100,100,0,1,0,70.69,29.26,99.72,99.72,0,0,0-70.69-29.26Z"/><path class="c" d="M61.23,132.86h3.4l.34,2.8h.14c2.2-1.83,4.93-3.4,7.75-3.4,6.28,0,9.64,4.87,9.64,12.38,0,8.28-5,13.12-10.53,13.12A11,11,0,0,1,65.23,155l.11,4.24v8.23H61.23Zm17,11.82c0-5.37-1.84-9-6.41-9-2.06,0-4.14,1.13-6.5,3.31v12.74a9.48,9.48,0,0,0,5.92,2.53C75.28,154.3,78.25,150.68,78.25,144.68Z"/><path class="c" d="M86,167.14l.8-3.28a6.54,6.54,0,0,0,1.86.36c2.74,0,4.47-2.2,5.48-5.21l.55-1.8-9.75-24.35h4.24l5,13.45c.76,2.11,1.57,4.6,2.36,6.85h.2c.69-2.21,1.38-4.7,2-6.85l4.33-13.45h4l-9.16,26.3c-1.72,4.83-4.23,8.48-9.1,8.48A7.86,7.86,0,0,1,86,167.14Z"/><path class="d" d="M112.15,149.65V136.21h-3.62v-3.12l1-.06a3.19,3.19,0,0,0,3-3l.3-4h3.43v6.82h6.59v3.35h-6.59v13.51c0,3,1,4.69,3.76,4.69a8.3,8.3,0,0,0,2.77-.65l.79,3.1a14.41,14.41,0,0,1-4.51.9C113.9,157.76,112.15,154.48,112.15,149.65Z"/><path class="d" d="M125.47,145c0-7.91,5.33-12.78,10.93-12.78,6.2,0,9.7,4.45,9.7,11.4a13.9,13.9,0,0,1-.19,2.34H129.54c.29,5.15,3.44,8.49,8.07,8.49a10.61,10.61,0,0,0,6-2l1.47,2.7a14.23,14.23,0,0,1-8,2.52C130.63,157.76,125.47,153,125.47,145Zm17-2c0-4.87-2.19-7.52-6-7.52-3.42,0-6.47,2.75-7,7.52Z"/><path class="d" d="M149,154.39l2-2.71a11,11,0,0,0,7.18,2.88c3.19,0,4.77-1.7,4.77-3.78,0-2.5-2.87-3.6-5.56-4.6-3.4-1.25-7.24-2.92-7.24-7,0-3.89,3.11-6.9,8.38-6.9a12.31,12.31,0,0,1,7.56,2.73l-2,2.63a9.17,9.17,0,0,0-5.54-2.16c-3.07,0-4.48,1.63-4.48,3.49,0,2.31,2.64,3.19,5.4,4.21,3.5,1.32,7.41,2.75,7.41,7.38,0,3.94-3.13,7.22-8.87,7.22A14.62,14.62,0,0,1,149,154.39Z"/><path class="d" d="M172.05,149.65V136.21h-3.62v-3.12l1-.06a3.19,3.19,0,0,0,3-3l.3-4h3.43v6.82h6.59v3.35h-6.59v13.51c0,3,1,4.69,3.76,4.69a8.3,8.3,0,0,0,2.77-.65l.79,3.1a14.41,14.41,0,0,1-4.51.9C173.8,157.76,172.05,154.48,172.05,149.65Z"/><rect class="d" x="101.17" y="64.16" width="9.5" height="45.82"/><rect class="c" x="121.11" y="33.93" width="4.55" height="48.84" rx="2.1" transform="translate(181.73 -65.04) rotate(90)"/><rect class="e" x="112.82" y="64.16" width="9.5" height="37.47"/><rect class="f" x="124.47" y="64.16" width="9.5" height="25.44"/><rect class="g" x="136.12" y="64.16" width="9.5" height="15.59"/><rect class="g" x="136.12" y="50.11" width="9.5" height="2.42"/><rect class="f" x="124.47" y="50.11" width="9.5" height="2.42"/><rect class="e" x="112.82" y="50.11" width="9.5" height="2.42"/><rect class="d" x="101.17" y="50.11" width="9.5" height="2.42"/><line class="h" x1="64.05" y1="44.75" x2="64.05" y2="112.2"/><line class="h" x1="38.87" y1="96.87" x2="38.87" y2="167.37"/><path class="h" d="M55.48,89.46H47.15a8.28,8.28,0,0,0-8.28,8.28V100"/><path class="h" d="M55.48,89.46h0A8.55,8.55,0,0,0,64,80.91v-2"/><circle class="i" cx="38.87" cy="110.32" r="5.49"/><circle class="j" cx="64.05" cy="75.8" r="5.49"/><circle class="k" cx="38.87" cy="171.84" r="5.49"/><circle class="k" cx="64.05" cy="43.28" r="5.49"/><circle class="l" cx="64.03" cy="110.32" r="5.49"/><line class="h" x1="135.53" y1="187.57" x2="58.68" y2="187.57"/><path class="m" d="M143.9,201.91v-7.2c0-3.94-3.7-7.14-8.27-7.14h-2.29"/><path class="m" d="M143.9,201.91h0c0,4.08,3.83,7.38,8.55,7.38h2"/><circle class="i" cx="123.05" cy="187.57" r="5.49"/><circle class="j" cx="157.56" cy="209.31" r="5.49"/><circle class="l" cx="52.67" cy="187.57" r="5.49"/><line class="h" x1="178.29" y1="97.76" x2="178.29" y2="38.74"/><path class="h" d="M188.63,105.6h-2.49a7.84,7.84,0,0,1-7.85-7.85V95"/><path class="h" d="M188.63,105.6h5.57A10.38,10.38,0,0,1,204.58,116v.18"/><circle class="i" cx="178.29" cy="78.26" r="5.49"/><line class="h" x1="204.58" y1="163.09" x2="204.58" y2="77.87"/><circle class="k" cx="204.58" cy="126.2" r="5.49"/><path class="d" d="M204.58,173.1a5.36,5.36,0,1,1,5.36-5.36A5.36,5.36,0,0,1,204.58,173.1Z"/><path class="c" d="M204.58,163.72a4,4,0,1,1-4,4,4,4,0,0,1,4-4m0-2.69a6.71,6.71,0,1,0,6.71,6.71,6.72,6.72,0,0,0-6.71-6.71Z"/><circle class="l" cx="178.29" cy="44.24" r="5.49"/><circle class="j" cx="204.58" cy="71.26" r="5.49"/></svg>